<svg xmlns="http://www.w3.org/2000/svg" xmlns:xlink="http://www.w3.org/1999/xlink" version="1.1" width="256" height="256" viewBox="0 0 256 256" xml:space="preserve">

<defs>
</defs>
<g style="stroke: none; stroke-width: 0; stroke-dasharray: none; stroke-linecap: butt; stroke-linejoin: miter; stroke-miterlimit: 10; fill: none; fill-rule: nonzero; opacity: 1;" transform="translate(1.4065934065934016 1.4065934065934016) scale(2.81 2.81)" >
	<polyline points="83.75,25.48 89,25.48 89,84.52 1,84.52 1,25.48 6.25,25.48 " style="stroke: none; stroke-width: 1; stroke-dasharray: none; stroke-linecap: butt; stroke-linejoin: miter; stroke-miterlimit: 10; fill: rgb(182,28,28); fill-rule: nonzero; opacity: 1;" transform="  matrix(1 0 0 1 0 0) "/>
	<path d="M 6.249 80.001 c 12.917 -3.135 25.834 -3.135 38.751 0 V 23.185 c -12.917 -3.135 -25.834 -3.135 -38.751 0 V 80.001 z" style="stroke: none; stroke-width: 1; stroke-dasharray: none; stroke-linecap: butt; stroke-linejoin: miter; stroke-miterlimit: 10; fill: rgb(234,158,101); fill-rule: nonzero; opacity: 1;" transform=" matrix(1 0 0 1 0 0) " stroke-linecap="round" />
	<path d="M 72.234 21.221 c 3.839 0.378 7.677 1.033 11.516 1.964 v 56.816 c -12.917 -3.135 -25.834 -3.135 -38.751 0 V 23.185" style="stroke: none; stroke-width: 1; stroke-dasharray: none; stroke-linecap: butt; stroke-linejoin: miter; stroke-miterlimit: 10; fill: rgb(201,130,77); fill-rule: nonzero; opacity: 1;" transform=" matrix(1 0 0 1 0 0) " stroke-linecap="round" />
	<path d="M 45 80.001 c 5.916 -10.317 15.092 -16.082 27.234 -17.705 V 5.48 C 60.092 7.103 50.916 12.869 45 23.185 V 80.001 z" style="stroke: none; stroke-width: 1; stroke-dasharray: none; stroke-linecap: butt; stroke-linejoin: miter; stroke-miterlimit: 10; fill: rgb(234,158,101); fill-rule: nonzero; opacity: 1;" transform=" matrix(1 0 0 1 0 0) " stroke-linecap="round" />
	<path d="M 6.25 81.001 c -0.222 0 -0.44 -0.074 -0.618 -0.214 C 5.39 80.598 5.25 80.308 5.25 80.001 V 23.186 c 0 -0.461 0.316 -0.863 0.764 -0.972 c 13.013 -3.159 26.209 -3.159 39.222 0 C 45.684 22.323 46 22.724 46 23.186 v 56.815 c 0 0.307 -0.141 0.597 -0.382 0.786 c -0.242 0.188 -0.557 0.259 -0.854 0.186 c -12.7 -3.082 -25.579 -3.082 -38.279 0 C 6.407 80.991 6.328 81.001 6.25 81.001 z M 25.625 76.66 c 6.138 0 12.275 0.693 18.375 2.079 V 23.976 c -12.197 -2.841 -24.553 -2.84 -36.75 0 v 54.764 C 13.35 77.354 19.487 76.66 25.625 76.66 z" style="stroke: none; stroke-width: 1; stroke-dasharray: none; stroke-linecap: butt; stroke-linejoin: miter; stroke-miterlimit: 10; fill: rgb(0,0,0); fill-rule: nonzero; opacity: 1;" transform=" matrix(1 0 0 1 0 0) " stroke-linecap="round" />
	<path d="M 83.751 81.001 c -0.079 0 -0.158 -0.009 -0.235 -0.028 c -12.703 -3.083 -25.581 -3.082 -38.28 0 c -0.3 0.07 -0.613 0.003 -0.854 -0.186 C 44.141 80.598 44 80.308 44 80.001 V 23.186 c 0 -0.552 0.448 -1 1 -1 s 1 0.448 1 1 v 55.554 c 12.201 -2.772 24.55 -2.771 36.751 0 V 23.976 c -3.529 -0.822 -7.097 -1.414 -10.614 -1.76 c -0.55 -0.054 -0.951 -0.543 -0.897 -1.093 c 0.054 -0.549 0.533 -0.952 1.093 -0.897 c 3.865 0.38 7.786 1.049 11.655 1.988 c 0.448 0.109 0.764 0.51 0.764 0.972 v 56.815 c 0 0.307 -0.141 0.597 -0.382 0.786 C 84.191 80.927 83.973 81.001 83.751 81.001 z" style="stroke: none; stroke-width: 1; stroke-dasharray: none; stroke-linecap: butt; stroke-linejoin: miter; stroke-miterlimit: 10; fill: rgb(0,0,0); fill-rule: nonzero; opacity: 1;" transform=" matrix(1 0 0 1 0 0) " stroke-linecap="round" />
	<path d="M 89 85.521 H 1 c -0.552 0 -1 -0.447 -1 -1 V 25.48 c 0 -0.552 0.448 -1 1 -1 h 5.25 c 0.552 0 1 0.448 1 1 s -0.448 1 -1 1 H 2 v 57.041 h 86 V 26.48 h -4.249 c -0.553 0 -1 -0.448 -1 -1 s 0.447 -1 1 -1 H 89 c 0.553 0 1 0.448 1 1 v 59.041 C 90 85.073 89.553 85.521 89 85.521 z" style="stroke: none; stroke-width: 1; stroke-dasharray: none; stroke-linecap: butt; stroke-linejoin: miter; stroke-miterlimit: 10; fill: rgb(0,0,0); fill-rule: nonzero; opacity: 1;" transform=" matrix(1 0 0 1 0 0) " stroke-linecap="round" />
	<path d="M 45 81.001 c -0.085 0 -0.172 -0.011 -0.257 -0.034 C 44.305 80.851 44 80.454 44 80.001 V 23.186 c 0 -0.174 0.046 -0.346 0.132 -0.498 c 5.959 -10.392 15.37 -16.515 27.969 -18.199 c 0.292 -0.039 0.575 0.049 0.791 0.239 c 0.218 0.19 0.342 0.464 0.342 0.752 v 56.816 c 0 0.501 -0.371 0.925 -0.867 0.991 c -11.951 1.598 -20.866 7.388 -26.5 17.211 C 45.686 80.814 45.352 81.001 45 81.001 z M 46 23.454 v 53.094 c 5.829 -8.383 14.3 -13.461 25.234 -15.119 V 6.637 C 59.944 8.427 51.459 14.081 46 23.454 z" style="stroke: none; stroke-width: 1; stroke-dasharray: none; stroke-linecap: butt; stroke-linejoin: miter; stroke-miterlimit: 10; fill: rgb(0,0,0); fill-rule: nonzero; opacity: 1;" transform=" matrix(1 0 0 1 0 0) " stroke-linecap="round" />
	<path d="M 51.938 28.046 c -0.271 0 -0.541 -0.109 -0.738 -0.326 c -0.372 -0.408 -0.344 -1.04 0.063 -1.413 c 3.915 -3.577 8.651 -6.194 14.078 -7.781 c 0.53 -0.156 1.085 0.15 1.24 0.679 c 0.155 0.53 -0.149 1.085 -0.68 1.241 c -5.131 1.5 -9.603 3.968 -13.289 7.337 C 52.42 27.959 52.179 28.046 51.938 28.046 z" style="stroke: none; stroke-width: 1; stroke-dasharray: none; stroke-linecap: butt; stroke-linejoin: miter; stroke-miterlimit: 10; fill: rgb(0,0,0); fill-rule: nonzero; opacity: 1;" transform=" matrix(1 0 0 1 0 0) " stroke-linecap="round" />
	<path d="M 51.939 38.565 c -0.271 0 -0.541 -0.109 -0.738 -0.326 c -0.372 -0.408 -0.344 -1.04 0.063 -1.413 c 3.914 -3.575 8.65 -6.192 14.076 -7.779 c 0.53 -0.156 1.085 0.15 1.24 0.679 c 0.155 0.53 -0.149 1.085 -0.68 1.241 c -5.13 1.5 -9.601 3.968 -13.287 7.335 C 52.422 38.479 52.181 38.565 51.939 38.565 z" style="stroke: none; stroke-width: 1; stroke-dasharray: none; stroke-linecap: butt; stroke-linejoin: miter; stroke-miterlimit: 10; fill: rgb(0,0,0); fill-rule: nonzero; opacity: 1;" transform=" matrix(1 0 0 1 0 0) " stroke-linecap="round" />
	<path d="M 51.939 49.087 c -0.271 0 -0.541 -0.109 -0.738 -0.325 c -0.372 -0.408 -0.344 -1.041 0.063 -1.413 c 3.915 -3.576 8.651 -6.193 14.076 -7.779 c 0.53 -0.156 1.085 0.15 1.24 0.679 c 0.155 0.53 -0.149 1.085 -0.68 1.241 c -5.129 1.499 -9.6 3.967 -13.287 7.335 C 52.422 49 52.181 49.087 51.939 49.087 z" style="stroke: none; stroke-width: 1; stroke-dasharray: none; stroke-linecap: butt; stroke-linejoin: miter; stroke-miterlimit: 10; fill: rgb(0,0,0); fill-rule: nonzero; opacity: 1;" transform=" matrix(1 0 0 1 0 0) " stroke-linecap="round" />
	<path d="M 45 85.521 c -0.552 0 -1 -0.447 -1 -1 v -5.472 c 0 -0.553 0.448 -1 1 -1 s 1 0.447 1 1 v 5.472 C 46 85.073 45.552 85.521 45 85.521 z" style="stroke: none; stroke-width: 1; stroke-dasharray: none; stroke-linecap: butt; stroke-linejoin: miter; stroke-miterlimit: 10; fill: rgb(0,0,0); fill-rule: nonzero; opacity: 1;" transform=" matrix(1 0 0 1 0 0) " stroke-linecap="round" />
	<path d="M 51.94 59.607 c -0.271 0 -0.541 -0.109 -0.738 -0.325 c -0.372 -0.408 -0.344 -1.041 0.063 -1.413 c 3.913 -3.574 8.648 -6.191 14.075 -7.778 c 0.53 -0.155 1.085 0.149 1.24 0.68 c 0.155 0.529 -0.149 1.085 -0.68 1.24 c -5.13 1.5 -9.601 3.968 -13.286 7.335 C 52.423 59.521 52.182 59.607 51.94 59.607 z" style="stroke: none; stroke-width: 1; stroke-dasharray: none; stroke-linecap: butt; stroke-linejoin: miter; stroke-miterlimit: 10; fill: rgb(0,0,0); fill-rule: nonzero; opacity: 1;" transform=" matrix(1 0 0 1 0 0) " stroke-linecap="round" />
	<path d="M 12.927 35.469 c -0.483 0 -0.908 -0.351 -0.986 -0.843 c -0.086 -0.545 0.285 -1.058 0.831 -1.145 c 8.483 -1.349 17.084 -1.357 25.564 -0.022 c 0.546 0.086 0.918 0.598 0.833 1.143 c -0.086 0.546 -0.599 0.918 -1.143 0.833 c -8.273 -1.302 -16.664 -1.294 -24.939 0.022 C 13.033 35.465 12.979 35.469 12.927 35.469 z" style="stroke: none; stroke-width: 1; stroke-dasharray: none; stroke-linecap: butt; stroke-linejoin: miter; stroke-miterlimit: 10; fill: rgb(0,0,0); fill-rule: nonzero; opacity: 1;" transform=" matrix(1 0 0 1 0 0) " stroke-linecap="round" />
	<path d="M 12.928 45.991 c -0.483 0 -0.908 -0.351 -0.987 -0.843 c -0.086 -0.545 0.285 -1.058 0.831 -1.145 c 8.481 -1.35 17.083 -1.357 25.564 -0.022 c 0.546 0.086 0.918 0.598 0.833 1.143 c -0.086 0.546 -0.599 0.918 -1.143 0.833 c -8.275 -1.301 -16.666 -1.294 -24.939 0.022 C 13.033 45.987 12.979 45.991 12.928 45.991 z" style="stroke: none; stroke-width: 1; stroke-dasharray: none; stroke-linecap: butt; stroke-linejoin: miter; stroke-miterlimit: 10; fill: rgb(0,0,0); fill-rule: nonzero; opacity: 1;" transform=" matrix(1 0 0 1 0 0) " stroke-linecap="round" />
	<path d="M 12.928 56.513 c -0.483 0 -0.908 -0.351 -0.987 -0.843 c -0.086 -0.546 0.285 -1.058 0.831 -1.145 c 8.483 -1.351 17.085 -1.357 25.564 -0.023 c 0.546 0.086 0.918 0.598 0.833 1.144 s -0.599 0.918 -1.143 0.833 c -8.272 -1.302 -16.664 -1.294 -24.939 0.021 C 13.033 56.509 12.979 56.513 12.928 56.513 z" style="stroke: none; stroke-width: 1; stroke-dasharray: none; stroke-linecap: butt; stroke-linejoin: miter; stroke-miterlimit: 10; fill: rgb(0,0,0); fill-rule: nonzero; opacity: 1;" transform=" matrix(1 0 0 1 0 0) " stroke-linecap="round" />
	<path d="M 12.927 67.033 c -0.483 0 -0.908 -0.351 -0.986 -0.843 c -0.086 -0.546 0.285 -1.058 0.831 -1.145 c 8.492 -1.352 17.103 -1.356 25.594 -0.019 c 0.545 0.087 0.918 0.599 0.832 1.144 c -0.085 0.546 -0.597 0.913 -1.144 0.833 c -8.283 -1.307 -16.685 -1.3 -24.968 0.017 C 13.033 67.029 12.979 67.033 12.927 67.033 z" style="stroke: none; stroke-width: 1; stroke-dasharray: none; stroke-linecap: butt; stroke-linejoin: miter; stroke-miterlimit: 10; fill: rgb(0,0,0); fill-rule: nonzero; opacity: 1;" transform=" matrix(1 0 0 1 0 0) " stroke-linecap="round" />
</g>
</svg>